<svg width="208" height="208" viewBox="0 0 208 208" fill="none" xmlns="http://www.w3.org/2000/svg">
<path d="M104 0C83.4308 0 63.3235 6.09949 46.2207 17.5272C29.118 28.9548 15.7881 45.1974 7.91658 64.2009C0.0450616 83.2044 -2.01449 104.115 1.99838 124.289C6.01124 144.463 15.9163 162.994 30.4609 177.539C45.0056 192.084 63.5366 201.989 83.7107 206.002C103.885 210.015 124.796 207.955 143.799 200.083C162.803 192.212 179.045 178.882 190.473 161.779C201.901 144.677 208 124.569 208 104C207.971 76.4264 197.004 49.9905 177.507 30.4931C158.01 10.9956 131.574 0.0291182 104 0ZM36.4 47.72L53.47 64.79C46.4029 73.8314 41.9111 84.6151 40.47 96H16.37C17.9779 78.2433 24.9657 61.4 36.4 47.72ZM16.37 112H40.52C41.9611 123.385 46.4529 134.169 53.52 143.21L36.4 160.28C24.9657 146.6 17.9779 129.757 16.37 112ZM96 191.63C78.2467 190.031 61.4037 183.054 47.72 171.63L64.79 154.56C73.8402 161.598 84.6231 166.062 96 167.48V191.63ZM96 40.52C84.6151 41.9611 73.8315 46.4528 64.79 53.52L47.72 36.4C61.4037 24.9765 78.2467 17.9993 96 16.4V40.52ZM191.63 96H167.48C166.054 84.6201 161.579 73.8369 154.53 64.79L171.6 47.72C183.034 61.4 190.022 78.2433 191.63 96ZM112 16.37C129.753 17.9693 146.596 24.9465 160.28 36.37L143.21 53.47C134.169 46.4028 123.385 41.9111 112 40.47V16.37ZM112 191.63V167.48C123.38 166.054 134.163 161.579 143.21 154.53L160.28 171.6C146.6 183.034 129.757 190.022 112 191.63ZM171.6 160.28L154.53 143.21C161.579 134.163 166.054 123.38 167.48 112H191.63C190.022 129.757 183.034 146.6 171.6 160.28Z" fill="white"/>
</svg>
