<svg width="448" height="448" viewBox="0 0 448 448" fill="none" xmlns="http://www.w3.org/2000/svg">
<path d="M384.003 448C348.713 448 320.003 418.89 320.003 383.12C320.003 349.83 348.673 317.72 364.083 300.48C365.953 298.38 367.573 296.57 368.763 295.17C370.635 292.939 372.972 291.145 375.611 289.915C378.25 288.684 381.127 288.047 384.038 288.047C386.95 288.047 389.827 288.684 392.466 289.915C395.104 291.145 397.442 292.939 399.313 295.17C400.443 296.48 401.943 298.17 403.673 300.1C419.173 317.4 448.003 349.61 448.003 383.15C448.003 418.89 419.293 448 384.003 448ZM366.233 244.64L134.893 15.2195C125.126 5.47348 111.892 0 98.0935 0C84.2954 0 71.0608 5.47348 61.2935 15.2195L56.7835 19.7295C46.7637 29.5854 41.0512 43.0057 40.8935 57.0595C40.8548 63.921 42.1834 70.7215 44.8017 77.0639C47.4201 83.4063 51.2757 89.1635 56.1435 93.9995L97.6535 135.5L13.0035 220C8.81416 224.198 5.50615 229.192 3.27371 234.687C1.04127 240.183 -0.0705774 246.069 0.00346961 252C0.0527144 257.786 1.2744 263.502 3.59473 268.802C5.91505 274.103 9.28585 278.878 13.5035 282.84L144.743 408.84C152.967 416.722 163.928 421.108 175.32 421.075C186.711 421.041 197.646 416.591 205.823 408.66L329.933 288.38C332.178 286.148 335.048 284.651 338.163 284.09C342.108 283.459 346.099 283.171 350.093 283.23H350.393C354.868 283.237 359.244 281.912 362.963 279.423C366.682 276.934 369.576 273.394 371.275 269.255C372.974 265.115 373.402 260.563 372.504 256.179C371.606 251.795 369.423 247.778 366.233 244.64ZM120.293 112.85L78.7635 71.3295C76.8979 69.4713 75.4177 67.2631 74.4077 64.8314C73.3976 62.3998 72.8777 59.7926 72.8777 57.1595C72.8777 54.5264 73.3976 51.9193 74.4077 49.4876C75.4177 47.056 76.8979 44.8477 78.7635 42.9895L83.9235 37.8395C85.7873 35.9748 88.0002 34.4956 90.4358 33.4864C92.8714 32.4772 95.482 31.9578 98.1185 31.9578C100.755 31.9578 103.365 32.4772 105.801 33.4864C108.237 34.4956 110.45 35.9748 112.313 37.8395L154.003 79.2095L120.293 112.85Z" fill="white"/>
</svg>
